<svg width="344" height="344" viewBox="0 0 344 344" fill="none" xmlns="http://www.w3.org/2000/svg">
<path fill-rule="evenodd" clip-rule="evenodd" d="M159.062 318.184C159.706 321.669 160.092 323.864 158.031 325.413C153.524 318.055 151.592 308.761 150.433 296.499C149.145 297.402 147.857 298.306 146.569 299.21C146.44 298.435 146.44 297.661 146.311 296.886C148.114 288.883 145.925 279.977 142.834 272.877C141.675 275.33 141.16 277.782 139.357 279.719C136.909 273.006 134.462 266.423 132.015 259.711C129.826 251.45 130.599 240.866 131.243 234.283C133.69 209.758 122.227 186.265 112.825 173.874C112.568 173.874 112.439 173.874 112.181 173.874C111.924 175.294 111.666 176.713 111.409 178.133C111.022 178.133 110.636 178.262 110.249 178.262C104.84 153.221 78.4374 158.771 74.3161 119.531C75.0888 119.273 75.8616 119.015 76.6344 118.757C82.1725 119.919 82.4301 118.111 85.7787 115.53C85.9075 118.499 86.0363 120.693 87.5818 121.855C94.6654 126.114 101.878 130.374 108.961 134.634C102.908 124.824 96.7261 114.885 90.6728 105.075C88.7409 105.849 86.9378 106.623 85.0059 107.398C85.0059 107.14 85.0059 107.011 85.0059 106.753C86.6803 100.815 84.2332 96.8134 85.7787 90.1013C87.3242 83.3892 90.6728 74.87 93.635 68.0288C94.9229 67.5125 96.3397 66.9961 97.6276 66.4798C114.886 75.3863 130.856 100.04 149.918 105.204C166.017 109.592 185.593 103.009 199.503 109.85C209.806 114.885 214.958 132.568 223.587 137.732C231.186 139.41 238.913 140.958 246.512 142.637C257.331 145.993 265.831 153.608 275.748 157.481C275.877 158.255 275.877 159.03 276.006 159.804C268.665 167.678 259.392 174.261 244.452 175.939C252.823 186.523 263.255 204.207 275.62 209.629C275.491 210.274 275.362 210.79 275.233 211.436C272.915 211.823 270.597 212.339 268.278 212.726C268.665 212.726 269.051 212.597 269.437 212.597C277.165 219.31 285.021 226.151 292.749 232.863C292.749 233.121 292.749 233.25 292.749 233.508C290.817 233.508 288.756 233.508 286.824 233.508C288.499 239.059 293.264 242.931 298.029 244.867C297.643 245.513 297.385 246.158 296.999 246.803C295.454 247.32 293.908 247.836 292.491 248.481C299.446 251.063 311.939 256.484 318.636 262.035C334.735 235.573 344.009 204.465 343.88 171.163C343.365 76.0317 265.96 -0.641351 171.04 0.00404474C75.8616 0.133124 -0.512581 77.7097 0.00259099 172.841C0.517763 266.553 75.7329 342.322 168.721 344C166.403 335.223 165.373 320.766 159.062 318.184Z" fill="#F25C3A"/>
</svg>
